gait23_states
version=1
nRows=10
nColumns=21
inDegrees=yes

# SIMM Motion File Header:
name gait23_states
datacolumns 21
datarows 10
otherdata 1
range 0.000000 0.500000
endheader
time	/jointset/ground_pelvis/pelvis_tilt/value	/jointset/ground_pelvis/pelvis_tilt/speed	/jointset/ground_pelvis/pelvis_list/value	/jointset/ground_pelvis/pelvis_list/speed	/jointset/ground_pelvis/pelvis_rotation/value	/jointset/ground_pelvis/pelvis_rotation/speed	/jointset/ground_pelvis/pelvis_tx/value	/jointset/ground_pelvis/pelvis_tx/speed	/jointset/ground_pelvis/pelvis_ty/value	/jointset/ground_pelvis/pelvis_ty/speed	/jointset/ground_pelvis/pelvis_tz/value	/jointset/ground_pelvis/pelvis_tz/speed	/jointset/hip_r/hip_flexion_r/value	/jointset/hip_r/hip_flexion_r/speed	/jointset/hip_r/hip_adduction_r/value	/jointset/hip_r/hip_adduction_r/speed	/jointset/hip_r/hip_rotation_r/value	/jointset/hip_r/hip_rotation_r/speed	/jointset/knee_r/knee_angle_r/value	/jointset/knee_r/knee_angle_r/speed
      0.00000000	      0.00000000	      0.00000000	      0.00000000	      0.00000000	      0.00000000	      0.00000000	      0.00000000	      0.00000000	      1.00000000	      0.00000000	      0.00000000	      0.00000000	     90.00000000	      0.00000000	     -0.00000007	      0.00000000	      0.00000000	      0.00000000	    -90.00000000	      0.00000000
      0.01000000	      0.00000000	      0.00000000	     -0.00000000	     -0.00000000	     -0.00000000	     -0.00000000	     -0.00000000	     -0.00000000	      1.00000000	      0.00000000	      0.00000000	      0.00000000	     90.00000000	     -0.00000000	     -0.00000007	      0.00000000	     -0.00000000	     -0.00000000	    -89.96932832	      6.13321818
      0.06000000	      0.00000000	      0.00000000	      0.00000000	      0.00000000	     -0.00000000	     -0.00000000	     -0.00000000	     -0.00000000	      1.00000000	      0.00000000	     -0.00000000	      0.00000000	     90.00000000	     -0.00000000	     -0.00000007	      0.00000000	     -0.00000000	     -0.00000000	    -88.90286188	     36.33028870
      0.16653067	      0.00000000	     -0.00000000	      0.00000000	      0.00000000	     -0.00000000	     -0.00000000	     -0.00000000	     -0.00000000	      1.00000000	      0.00000000	      0.00000000	      0.00000000	     90.00000000	     -0.00000000	     -0.00000007	      0.00000000	     -0.00000000	     -0.00000000	    -81.91952703	     91.96172679
      0.19169921	      0.00000000	      0.00000000	      0.00000000	      0.00000000	     -0.00000000	     -0.00000000	     -0.00000000	     -0.00000000	      1.00000000	      0.00000000	      0.00000000	      0.00000000	     90.00000000	     -0.00000000	     -0.00000007	      0.00000000	     -0.00000000	     -0.00000000	    -79.47175261	    102.40543298
      0.21686776	      0.00000000	      0.00000000	      0.00000000	      0.00000000	     -0.00000000	     -0.00000000	     -0.00000000	     -0.00000000	      1.00000000	      0.00000000	      0.00000000	      0.00000000	     90.00000000	     -0.00000000	     -0.00000007	      0.00000000	     -0.00000000	     -0.00000000	    -76.77285489	    111.88925522
      0.28819072	      0.00000000	      0.00000000	      0.00000000	      0.00000000	     -0.00000000	     -0.00000000	     -0.00000000	     -0.00000000	      1.00000000	      0.00000000	      0.00000000	      0.00000000	     90.00000000	     -0.00000000	     -0.00000007	      0.00000000	     -0.00000000	     -0.00000000	    -67.99732236	    132.56985787
      0.35951367	      0.00000000	      0.00000000	      0.00000000	     -0.00000000	     -0.00000000	     -0.00000000	     -0.00000000	     -0.00000000	      1.00000000	      0.00000000	      0.00000000	      0.00000000	     90.00000000	     -0.00000000	     -0.00000007	      0.00000000	     -0.00000000	     -0.00000000	    -58.10863912	    142.96598070
      0.45100951	      0.00000000	      0.00000000	      0.00000000	     -0.00000000	     -0.00000000	     -0.00000000	     -0.00000000	     -0.00000000	      1.00000000	      0.00000000	      0.00000000	      0.00000000	     90.00000000	     -0.00000000	     -0.00000007	      0.00000000	     -0.00000000	     -0.00000000	    -44.99423772	    140.82905099
      0.50000000	      0.00000000	      0.00000000	      0.00000000	     -0.00000000	     -0.00000000	     -0.00000000	     -0.00000000	     -0.00000000	      1.00000000	      0.00000000	      0.00000000	      0.00000000	     90.00000000	     -0.00000000	     -0.00000007	      0.00000000	     -0.00000000	     -0.00000000	    -38.27184491	    132.89456214
